<mxfile host="65bd71144e">
    <diagram id="O1C710dGgt9tuEfuA85E" name="Seite-1">
        <mxGraphModel dx="2358" dy="2722" grid="1" gridSize="10" guides="1" tooltips="1" connect="1" arrows="1" fold="1" page="1" pageScale="1" pageWidth="827" pageHeight="1169" background="#ffffff" math="0" shadow="0">
            <root>
                <mxCell id="0"/>
                <mxCell id="1" parent="0"/>
                <mxCell id="63" value="GODOT" style="shape=umlFrame;whiteSpace=wrap;html=1;strokeColor=#000000;strokeWidth=2;fontFamily=TeX Gyre Termes;fontSize=15;fontColor=#000000;fillColor=#b3c5d0;" vertex="1" parent="1">
                    <mxGeometry x="120" y="-680" width="640" height="240" as="geometry"/>
                </mxCell>
                <mxCell id="70" value="Area2D" style="html=1;strokeColor=#000000;strokeWidth=2;fontFamily=TeX Gyre Termes;fontSize=15;fontColor=#000000;fillColor=#b3c5d0;" vertex="1" parent="63">
                    <mxGeometry x="400.0005882352941" y="102.85428571428571" width="75.29411764705883" height="34.285714285714285" as="geometry"/>
                </mxCell>
                <mxCell id="72" value="StaticBody3D" style="html=1;strokeColor=#000000;strokeWidth=2;fontFamily=TeX Gyre Termes;fontSize=15;fontColor=#000000;fillColor=#b3c5d0;" vertex="1" parent="63">
                    <mxGeometry x="499.99823529411765" y="102.85428571428571" width="84.70588235294117" height="34.285714285714285" as="geometry"/>
                </mxCell>
                <mxCell id="75" value="Audio" style="html=1;strokeColor=#000000;strokeWidth=2;fontFamily=TeX Gyre Termes;fontSize=15;fontColor=#000000;fillColor=#b3c5d0;" vertex="1" parent="63">
                    <mxGeometry x="40" y="120" width="80" height="40" as="geometry"/>
                </mxCell>
                <mxCell id="76" value="Animationplayer" style="html=1;strokeColor=#000000;strokeWidth=2;fontFamily=TeX Gyre Termes;fontSize=15;fontColor=#000000;fillColor=#b3c5d0;" vertex="1" parent="63">
                    <mxGeometry x="159.99882352941177" y="120" width="112.94117647058823" height="40" as="geometry"/>
                </mxCell>
                <mxCell id="77" value="&lt;font style=&quot;font-size: 20px;&quot;&gt;&lt;b&gt;(...)&lt;/b&gt;&lt;/font&gt;" style="text;html=1;align=center;verticalAlign=middle;resizable=0;points=[];autosize=1;strokeColor=none;fillColor=none;fontSize=15;fontFamily=TeX Gyre Termes;fontColor=#000000;" vertex="1" parent="63">
                    <mxGeometry x="529.9952941176471" y="159.99714285714288" width="50" height="40" as="geometry"/>
                </mxCell>
                <mxCell id="91" value="Scene" style="html=1;strokeColor=#000000;strokeWidth=2;fontFamily=TeX Gyre Termes;fontSize=15;fontColor=#000000;fillColor=#b3c5d0;" vertex="1" parent="63">
                    <mxGeometry x="293.5041176470588" y="40" width="75.29411764705883" height="40" as="geometry"/>
                </mxCell>
                <mxCell id="68" value="Physik" style="shape=umlFrame;whiteSpace=wrap;html=1;strokeColor=#000000;strokeWidth=2;fontFamily=TeX Gyre Termes;fontSize=15;fontColor=#000000;fillColor=#b3c5d0;" vertex="1" parent="1">
                    <mxGeometry x="510" y="-640" width="220" height="170" as="geometry"/>
                </mxCell>
                <mxCell id="18" style="edgeStyle=none;html=1;entryX=0.25;entryY=1;entryDx=0;entryDy=0;strokeColor=#000000;fontColor=#000000;endArrow=block;endFill=0;strokeWidth=2;endSize=10;exitX=0.25;exitY=0;exitDx=0;exitDy=0;" edge="1" parent="1" source="14" target="16">
                    <mxGeometry relative="1" as="geometry">
                        <Array as="points">
                            <mxPoint x="160" y="240"/>
                        </Array>
                    </mxGeometry>
                </mxCell>
                <mxCell id="56" style="edgeStyle=none;html=1;exitX=0.876;exitY=-0.005;exitDx=0;exitDy=0;entryX=0.5;entryY=1;entryDx=0;entryDy=0;strokeColor=#000000;strokeWidth=2;fontFamily=TeX Gyre Termes;fontSize=15;fontColor=#000000;startArrow=diamond;startFill=1;endArrow=none;endFill=0;startSize=15;endSize=15;exitPerimeter=0;" edge="1" parent="1" source="14" target="39">
                    <mxGeometry relative="1" as="geometry">
                        <Array as="points">
                            <mxPoint x="260" y="200"/>
                            <mxPoint x="680" y="200"/>
                        </Array>
                    </mxGeometry>
                </mxCell>
                <mxCell id="14" value="&lt;p style=&quot;margin:0px;margin-top:4px;text-align:center;&quot;&gt;&lt;b&gt;SpaceShip&lt;/b&gt;&lt;/p&gt;&lt;hr size=&quot;1&quot;&gt;&lt;p style=&quot;margin:0px;margin-left:4px;&quot;&gt;&lt;span style=&quot;background-color: initial;&quot;&gt;+ firePower: int&lt;/span&gt;&lt;br&gt;&lt;/p&gt;&lt;p style=&quot;margin:0px;margin-left:4px;&quot;&gt;+ fireRate: int&lt;/p&gt;&lt;p style=&quot;margin:0px;margin-left:4px;&quot;&gt;+ spaceshipType: string&lt;/p&gt;&lt;hr size=&quot;1&quot;&gt;&lt;p style=&quot;margin:0px;margin-left:4px;&quot;&gt;&lt;span style=&quot;background-color: initial;&quot;&gt;+ shoot()&lt;/span&gt;&lt;br&gt;&lt;/p&gt;&lt;p style=&quot;margin:0px;margin-left:4px;&quot;&gt;+ stop()&lt;/p&gt;&lt;p style=&quot;margin:0px;margin-left:4px;&quot;&gt;&lt;br&gt;&lt;/p&gt;" style="verticalAlign=top;align=left;overflow=fill;fontSize=12;fontFamily=Helvetica;html=1;strokeColor=#000000;fontColor=#000000;fillColor=#b3c5d0;" vertex="1" parent="1">
                    <mxGeometry x="120" y="300" width="160" height="120" as="geometry"/>
                </mxCell>
                <mxCell id="94" style="edgeStyle=none;html=1;strokeColor=#000000;strokeWidth=2;fontFamily=Helvetica;fontSize=11;fontColor=#000000;startArrow=none;startFill=0;endArrow=block;endFill=0;startSize=15;endSize=10;" edge="1" parent="1" source="16" target="68">
                    <mxGeometry relative="1" as="geometry">
                        <mxPoint x="590" y="-410" as="targetPoint"/>
                        <Array as="points">
                            <mxPoint x="200" y="-420"/>
                            <mxPoint x="620" y="-420"/>
                        </Array>
                    </mxGeometry>
                </mxCell>
                <mxCell id="16" value="&lt;p style=&quot;margin:0px;margin-top:4px;text-align:center;&quot;&gt;&lt;b&gt;&amp;lt;&amp;lt;MovingObject&amp;gt;&amp;gt;&lt;/b&gt;&lt;/p&gt;&lt;hr size=&quot;1&quot;&gt;&lt;p style=&quot;margin:0px;margin-left:4px;&quot;&gt;+ name: string&lt;/p&gt;&lt;p style=&quot;margin:0px;margin-left:4px;&quot;&gt;- lives: int&lt;/p&gt;&lt;p style=&quot;margin:0px;margin-left:4px;&quot;&gt;- movementSpeed: float&lt;/p&gt;&lt;p style=&quot;margin:0px;margin-left:4px;&quot;&gt;+ size: int&lt;/p&gt;&lt;p style=&quot;margin:0px;margin-left:4px;&quot;&gt;+ currentState: string&lt;/p&gt;&lt;p style=&quot;margin:0px;margin-left:4px;&quot;&gt;+ colour: string&lt;/p&gt;&lt;hr size=&quot;1&quot;&gt;&lt;p style=&quot;margin:0px;margin-left:4px;&quot;&gt;+ move(direction)&lt;/p&gt;&lt;p style=&quot;margin:0px;margin-left:4px;&quot;&gt;+ reduceLives()&lt;/p&gt;" style="verticalAlign=top;align=left;overflow=fill;fontSize=12;fontFamily=Helvetica;html=1;strokeColor=#000000;fontColor=#000000;fillColor=#b3c5d0;" vertex="1" parent="1">
                    <mxGeometry x="120" y="-40" width="160" height="170" as="geometry"/>
                </mxCell>
                <mxCell id="38" style="edgeStyle=none;html=1;exitX=0.75;exitY=0;exitDx=0;exitDy=0;entryX=0.75;entryY=1;entryDx=0;entryDy=0;strokeColor=#000000;strokeWidth=2;fontFamily=TeX Gyre Termes;fontSize=15;fontColor=#000000;endArrow=diamond;endFill=1;startSize=6;endSize=15;" edge="1" parent="1" source="19" target="25">
                    <mxGeometry relative="1" as="geometry"/>
                </mxCell>
                <mxCell id="19" value="&lt;p style=&quot;margin:0px;margin-top:4px;text-align:center;&quot;&gt;&lt;b&gt;Obstacle&lt;/b&gt;&lt;/p&gt;&lt;hr size=&quot;1&quot;&gt;&lt;p style=&quot;margin:0px;margin-left:4px;&quot;&gt;&lt;span style=&quot;background-color: initial;&quot;&gt;+ scoreValue: int&lt;br&gt;&lt;/span&gt;&lt;/p&gt;&lt;p style=&quot;margin:0px;margin-left:4px;&quot;&gt;&lt;span style=&quot;background-color: initial;&quot;&gt;+ waveAssignment: int&lt;/span&gt;&lt;/p&gt;&lt;hr size=&quot;1&quot;&gt;&lt;p style=&quot;margin:0px;margin-left:4px;&quot;&gt;&lt;span style=&quot;background-color: initial;&quot;&gt;+ checkCollision(shot)&lt;/span&gt;&lt;/p&gt;&lt;p style=&quot;margin:0px;margin-left:4px;&quot;&gt;+ spawn()&lt;/p&gt;&lt;p style=&quot;margin:0px;margin-left:4px;&quot;&gt;+ destroy()&lt;/p&gt;" style="verticalAlign=top;align=left;overflow=fill;fontSize=12;fontFamily=Helvetica;html=1;strokeColor=#000000;fontColor=#000000;fillColor=#b3c5d0;" vertex="1" parent="1">
                    <mxGeometry x="360" y="300" width="160" height="120" as="geometry"/>
                </mxCell>
                <mxCell id="20" style="edgeStyle=none;html=1;entryX=0.5;entryY=1;entryDx=0;entryDy=0;strokeColor=#000000;fontColor=#000000;endArrow=block;endFill=0;strokeWidth=2;endSize=10;exitX=0.25;exitY=0;exitDx=0;exitDy=0;" edge="1" parent="1" source="19" target="16">
                    <mxGeometry relative="1" as="geometry">
                        <mxPoint x="340" y="290" as="sourcePoint"/>
                        <mxPoint x="460" y="140" as="targetPoint"/>
                        <Array as="points">
                            <mxPoint x="400" y="260"/>
                            <mxPoint x="200" y="260"/>
                        </Array>
                    </mxGeometry>
                </mxCell>
                <mxCell id="22" style="edgeStyle=none;html=1;entryX=0.75;entryY=1;entryDx=0;entryDy=0;strokeColor=#000000;strokeWidth=2;fontColor=#000000;endArrow=block;endFill=0;endSize=10;exitX=0.25;exitY=0;exitDx=0;exitDy=0;" edge="1" parent="1" source="21" target="16">
                    <mxGeometry relative="1" as="geometry">
                        <Array as="points">
                            <mxPoint x="640" y="240"/>
                            <mxPoint x="440" y="240"/>
                            <mxPoint x="240" y="240"/>
                        </Array>
                    </mxGeometry>
                </mxCell>
                <mxCell id="23" style="edgeStyle=none;html=1;exitX=0.25;exitY=1;exitDx=0;exitDy=0;entryX=0.5;entryY=1;entryDx=0;entryDy=0;strokeColor=#000000;strokeWidth=2;fontColor=#000000;endArrow=diamond;endFill=1;endSize=15;startSize=6;" edge="1" parent="1" source="21" target="14">
                    <mxGeometry relative="1" as="geometry">
                        <Array as="points">
                            <mxPoint x="640" y="500"/>
                            <mxPoint x="200" y="500"/>
                            <mxPoint x="200" y="450"/>
                        </Array>
                    </mxGeometry>
                </mxCell>
                <mxCell id="102" style="edgeStyle=none;html=1;exitX=0.25;exitY=0;exitDx=0;exitDy=0;entryX=0.5;entryY=0;entryDx=0;entryDy=0;strokeColor=#000000;strokeWidth=2;fontFamily=Helvetica;fontSize=11;fontColor=#000000;startArrow=none;startFill=0;endArrow=none;endFill=0;startSize=15;endSize=10;" edge="1" parent="1" source="21" target="65">
                    <mxGeometry relative="1" as="geometry">
                        <Array as="points">
                            <mxPoint x="640" y="240"/>
                            <mxPoint x="60" y="240"/>
                            <mxPoint x="60" y="-720"/>
                            <mxPoint x="320" y="-720"/>
                        </Array>
                    </mxGeometry>
                </mxCell>
                <mxCell id="21" value="&lt;p style=&quot;margin:0px;margin-top:4px;text-align:center;&quot;&gt;&lt;b&gt;Shot&lt;/b&gt;&lt;/p&gt;&lt;hr size=&quot;1&quot;&gt;&lt;p style=&quot;margin:0px;margin-left:4px;&quot;&gt;&lt;span style=&quot;background-color: initial;&quot;&gt;+ position: Vector2&lt;br&gt;&lt;/span&gt;&lt;/p&gt;&lt;p style=&quot;margin:0px;margin-left:4px;&quot;&gt;&lt;span style=&quot;background-color: initial;&quot;&gt;+ damage: int&lt;/span&gt;&lt;/p&gt;&lt;p style=&quot;margin:0px;margin-left:4px;&quot;&gt;+ isHoming: bool&lt;/p&gt;&lt;hr size=&quot;1&quot;&gt;&lt;p style=&quot;margin:0px;margin-left:4px;&quot;&gt;&lt;span style=&quot;background-color: initial;&quot;&gt;+ checkTimer()&lt;/span&gt;&lt;/p&gt;&lt;p style=&quot;margin:0px;margin-left:4px;&quot;&gt;&lt;span style=&quot;background-color: initial;&quot;&gt;+ checkCollision(obstacle)&lt;/span&gt;&lt;/p&gt;&lt;p style=&quot;margin:0px;margin-left:4px;&quot;&gt;+ spawn()&lt;/p&gt;&lt;p style=&quot;margin:0px;margin-left:4px;&quot;&gt;+ destroy()&lt;/p&gt;&lt;p style=&quot;margin:0px;margin-left:4px;&quot;&gt;+ playSoundEffect()&lt;/p&gt;" style="verticalAlign=top;align=left;overflow=fill;fontSize=12;fontFamily=Helvetica;html=1;strokeColor=#000000;fontColor=#000000;fillColor=#b3c5d0;" vertex="1" parent="1">
                    <mxGeometry x="600" y="300" width="160" height="160" as="geometry"/>
                </mxCell>
                <mxCell id="54" style="edgeStyle=none;html=1;exitX=1;exitY=0.25;exitDx=0;exitDy=0;entryX=-0.011;entryY=0.314;entryDx=0;entryDy=0;entryPerimeter=0;strokeColor=#000000;strokeWidth=2;fontFamily=TeX Gyre Termes;fontSize=15;fontColor=#000000;startArrow=none;startFill=0;endArrow=diamond;endFill=1;startSize=15;endSize=15;" edge="1" parent="1" source="25" target="39">
                    <mxGeometry relative="1" as="geometry"/>
                </mxCell>
                <mxCell id="25" value="&lt;p style=&quot;margin:0px;margin-top:4px;text-align:center;&quot;&gt;&lt;b&gt;Wave&lt;/b&gt;&lt;/p&gt;&lt;hr size=&quot;1&quot;&gt;&lt;p style=&quot;margin:0px;margin-left:4px;&quot;&gt;&lt;span style=&quot;background-color: initial;&quot;&gt;+ waveNumber: int&lt;/span&gt;&lt;/p&gt;&lt;p style=&quot;margin:0px;margin-left:4px;&quot;&gt;&lt;span style=&quot;background-color: initial;&quot;&gt;- enemyCount: int&lt;/span&gt;&lt;br&gt;&lt;/p&gt;&lt;p style=&quot;margin:0px;margin-left:4px;&quot;&gt;- movementSpeed: float&lt;/p&gt;&lt;p style=&quot;margin:0px;margin-left:4px;&quot;&gt;+ isWaveActive: bool&lt;/p&gt;&lt;p style=&quot;margin:0px;margin-left:4px;&quot;&gt;+ currentState: string&lt;/p&gt;&lt;hr size=&quot;1&quot;&gt;&lt;p style=&quot;margin:0px;margin-left:4px;&quot;&gt;+ startWave()&lt;/p&gt;&lt;p style=&quot;margin:0px;margin-left:4px;&quot;&gt;+ spawnObstacles()&lt;/p&gt;&lt;p style=&quot;margin:0px;margin-left:4px;&quot;&gt;+ endWave()&lt;/p&gt;&lt;p style=&quot;margin:0px;margin-left:4px;&quot;&gt;+&amp;nbsp;calculateRewards()&lt;/p&gt;&lt;p style=&quot;margin:0px;margin-left:4px;&quot;&gt;+ resetWave()&lt;/p&gt;" style="verticalAlign=top;align=left;overflow=fill;fontSize=12;fontFamily=Helvetica;html=1;strokeColor=#000000;fontColor=#000000;fillColor=#b3c5d0;" vertex="1" parent="1">
                    <mxGeometry x="360" y="-40" width="160" height="200" as="geometry"/>
                </mxCell>
                <mxCell id="34" value="&lt;font style=&quot;font-size: 15px;&quot;&gt;1..*&lt;/font&gt;" style="text;html=1;align=center;verticalAlign=middle;resizable=0;points=[];autosize=1;strokeColor=none;fillColor=none;fontColor=#000000;fontFamily=TeX Gyre Termes;fontStyle=1;strokeWidth=14;" vertex="1" parent="1">
                    <mxGeometry x="440" y="270" width="50" height="30" as="geometry"/>
                </mxCell>
                <mxCell id="35" value="&lt;font style=&quot;font-size: 15px;&quot;&gt;0..*&lt;/font&gt;" style="text;html=1;align=center;verticalAlign=middle;resizable=0;points=[];autosize=1;strokeColor=none;fillColor=none;fontColor=#000000;fontFamily=TeX Gyre Termes;fontStyle=1;strokeWidth=14;" vertex="1" parent="1">
                    <mxGeometry x="590" y="470" width="50" height="30" as="geometry"/>
                </mxCell>
                <mxCell id="36" value="&lt;font style=&quot;font-size: 15px;&quot;&gt;1&lt;/font&gt;" style="text;html=1;align=center;verticalAlign=middle;resizable=0;points=[];autosize=1;strokeColor=none;fillColor=none;fontColor=#000000;fontFamily=TeX Gyre Termes;fontStyle=1;strokeWidth=14;" vertex="1" parent="1">
                    <mxGeometry x="180" y="440" width="30" height="30" as="geometry"/>
                </mxCell>
                <mxCell id="100" style="edgeStyle=none;html=1;exitX=0.25;exitY=0;exitDx=0;exitDy=0;entryX=0.411;entryY=0.831;entryDx=0;entryDy=0;entryPerimeter=0;strokeColor=#000000;strokeWidth=2;fontFamily=TeX Gyre Termes;fontSize=12;fontColor=#000000;startArrow=none;startFill=0;endArrow=none;endFill=0;startSize=15;endSize=15;" edge="1" parent="1" source="39" target="97">
                    <mxGeometry relative="1" as="geometry">
                        <Array as="points">
                            <mxPoint x="640" y="-80"/>
                        </Array>
                    </mxGeometry>
                </mxCell>
                <mxCell id="39" value="&lt;p style=&quot;margin:0px;margin-top:4px;text-align:center;&quot;&gt;&lt;b&gt;GameScreen&lt;/b&gt;&lt;/p&gt;&lt;hr size=&quot;1&quot;&gt;&lt;p style=&quot;margin:0px;margin-left:4px;&quot;&gt;- scorePoints: int&lt;/p&gt;&lt;p style=&quot;margin:0px;margin-left:4px;&quot;&gt;- gameOver: bool&lt;/p&gt;&lt;hr size=&quot;1&quot;&gt;&lt;p style=&quot;margin:0px;margin-left:4px;&quot;&gt;+ initializeGameScreen()&lt;/p&gt;&lt;p style=&quot;margin:0px;margin-left:4px;&quot;&gt;+ startGame()&lt;/p&gt;&lt;p style=&quot;margin:0px;margin-left:4px;&quot;&gt;+ pauseGame()&lt;/p&gt;&lt;p style=&quot;margin:0px;margin-left:4px;&quot;&gt;+&amp;nbsp;updateScore()&lt;/p&gt;&lt;p style=&quot;margin:0px;margin-left:4px;&quot;&gt;+ resetWave()&lt;/p&gt;&lt;p style=&quot;margin:0px;margin-left:4px;&quot;&gt;+ transitionEndScreen()&lt;br&gt;&lt;/p&gt;" style="verticalAlign=top;align=left;overflow=fill;fontSize=12;fontFamily=Helvetica;html=1;strokeColor=#000000;fontColor=#000000;fillColor=#b3c5d0;" vertex="1" parent="1">
                    <mxGeometry x="600" y="-40" width="160" height="160" as="geometry"/>
                </mxCell>
                <mxCell id="53" style="edgeStyle=none;html=1;entryX=0.5;entryY=0;entryDx=0;entryDy=0;strokeColor=#000000;strokeWidth=2;fontFamily=TeX Gyre Termes;fontSize=15;fontColor=#000000;startArrow=none;startFill=0;endArrow=diamond;endFill=1;startSize=15;endSize=15;" edge="1" parent="1" source="40" target="39">
                    <mxGeometry relative="1" as="geometry"/>
                </mxCell>
                <mxCell id="92" style="edgeStyle=none;html=1;entryX=0.5;entryY=1;entryDx=0;entryDy=0;strokeColor=#000000;strokeWidth=2;fontFamily=Helvetica;fontSize=11;fontColor=#000000;startArrow=none;startFill=0;endArrow=block;endFill=0;startSize=15;endSize=10;exitX=0;exitY=0.5;exitDx=0;exitDy=0;" edge="1" parent="1" source="40" target="91">
                    <mxGeometry relative="1" as="geometry">
                        <Array as="points">
                            <mxPoint x="451" y="-155"/>
                        </Array>
                    </mxGeometry>
                </mxCell>
                <mxCell id="40" value="&lt;p style=&quot;margin:0px;margin-top:4px;text-align:center;&quot;&gt;&lt;b&gt;Space&lt;/b&gt;&lt;/p&gt;&lt;hr size=&quot;1&quot;&gt;&lt;p style=&quot;margin:0px;margin-left:4px;&quot;&gt;- dimension: Vector2&lt;/p&gt;&lt;p style=&quot;margin:0px;margin-left:4px;&quot;&gt;- planets: List&amp;lt;Planets&amp;gt;&lt;br&gt;&lt;/p&gt;&lt;hr size=&quot;1&quot;&gt;&lt;p style=&quot;margin:0px;margin-left:4px;&quot;&gt;+ initializeGameScreen()&lt;/p&gt;&lt;p style=&quot;margin:0px;margin-left:4px;&quot;&gt;&lt;br&gt;&lt;/p&gt;" style="verticalAlign=top;align=left;overflow=fill;fontSize=12;fontFamily=Helvetica;html=1;strokeColor=#000000;fontColor=#000000;fillColor=#b3c5d0;" vertex="1" parent="1">
                    <mxGeometry x="600" y="-200" width="160" height="90" as="geometry"/>
                </mxCell>
                <mxCell id="46" style="html=1;exitX=1;exitY=0.5;exitDx=0;exitDy=0;entryX=-0.001;entryY=0.376;entryDx=0;entryDy=0;strokeColor=#000000;strokeWidth=2;fontFamily=TeX Gyre Termes;fontSize=15;fontColor=#000000;endArrow=blockThin;endFill=1;startSize=15;endSize=15;startArrow=diamond;startFill=1;entryPerimeter=0;" edge="1" parent="1" source="41" target="42">
                    <mxGeometry relative="1" as="geometry"/>
                </mxCell>
                <mxCell id="109" style="edgeStyle=none;html=1;exitX=0;exitY=0.5;exitDx=0;exitDy=0;entryX=0.25;entryY=0;entryDx=0;entryDy=0;strokeColor=#000000;strokeWidth=2;fontFamily=TeX Gyre Termes;fontSize=12;fontColor=#000000;startArrow=none;startFill=0;endArrow=none;endFill=0;startSize=15;endSize=15;" edge="1" parent="1" source="41" target="80">
                    <mxGeometry relative="1" as="geometry">
                        <Array as="points">
                            <mxPoint x="560" y="-300"/>
                            <mxPoint x="560" y="260"/>
                            <mxPoint x="1120" y="260"/>
                        </Array>
                    </mxGeometry>
                </mxCell>
                <mxCell id="41" value="&lt;p style=&quot;margin:0px;margin-top:4px;text-align:center;&quot;&gt;&lt;b&gt;DataManagerGUI&lt;/b&gt;&lt;/p&gt;&lt;hr size=&quot;1&quot;&gt;&lt;p style=&quot;margin:0px;margin-left:4px;&quot;&gt;&lt;br&gt;&lt;/p&gt;&lt;hr size=&quot;1&quot;&gt;&lt;p style=&quot;margin:0px;margin-left:4px;&quot;&gt;+ saveResult()&lt;/p&gt;&lt;p style=&quot;margin:0px;margin-left:4px;&quot;&gt;+ getResult()&lt;/p&gt;&lt;p style=&quot;margin:0px;margin-left:4px;&quot;&gt;+ deleteResult()&lt;/p&gt;&lt;p style=&quot;margin:0px;margin-left:4px;&quot;&gt;+ updateResult()&lt;/p&gt;" style="verticalAlign=top;align=left;overflow=fill;fontSize=12;fontFamily=Helvetica;html=1;strokeColor=#000000;fontColor=#000000;fillColor=#b3c5d0;" vertex="1" parent="1">
                    <mxGeometry x="601" y="-360" width="160" height="120" as="geometry"/>
                </mxCell>
                <mxCell id="44" style="edgeStyle=none;html=1;exitX=1;exitY=0.375;exitDx=0;exitDy=0;entryX=0;entryY=0.5;entryDx=0;entryDy=0;strokeColor=#000000;strokeWidth=2;fontFamily=TeX Gyre Termes;fontSize=15;fontColor=#000000;endArrow=openThin;endFill=0;startSize=15;endSize=15;dashed=1;startArrow=diamond;startFill=1;exitPerimeter=0;" edge="1" parent="1" source="42" target="43">
                    <mxGeometry relative="1" as="geometry"/>
                </mxCell>
                <mxCell id="42" value="&lt;p style=&quot;margin:0px;margin-top:4px;text-align:center;&quot;&gt;&lt;b&gt;OriginalDataManager&lt;/b&gt;&lt;/p&gt;&lt;hr size=&quot;1&quot;&gt;&lt;p style=&quot;margin:0px;margin-left:4px;&quot;&gt;- filename: string&lt;/p&gt;&lt;hr size=&quot;1&quot;&gt;&lt;p style=&quot;margin:0px;margin-left:4px;&quot;&gt;+ connect()&lt;/p&gt;&lt;p style=&quot;margin:0px;margin-left:4px;&quot;&gt;+ disconnect()&lt;/p&gt;&lt;p style=&quot;margin:0px;margin-left:4px;&quot;&gt;+ isConnected()&lt;/p&gt;&lt;p style=&quot;margin:0px;margin-left:4px;&quot;&gt;+ readOriginalData()&lt;/p&gt;&lt;p style=&quot;margin:0px;margin-left:4px;&quot;&gt;+ writeOriginalData()&lt;/p&gt;" style="verticalAlign=top;align=left;overflow=fill;fontSize=12;fontFamily=Helvetica;html=1;strokeColor=#000000;fontColor=#000000;fillColor=#b3c5d0;" vertex="1" parent="1">
                    <mxGeometry x="841" y="-360" width="160" height="160" as="geometry"/>
                </mxCell>
                <mxCell id="43" value="&lt;p style=&quot;margin:0px;margin-top:4px;text-align:center;&quot;&gt;&lt;b&gt;Database&lt;/b&gt;&lt;/p&gt;&lt;hr size=&quot;1&quot;&gt;&lt;p style=&quot;margin:0px;margin-left:4px;&quot;&gt;- scoreValues: List&amp;lt;int&amp;gt;&lt;/p&gt;&lt;hr size=&quot;1&quot;&gt;&lt;p style=&quot;margin:0px;margin-left:4px;&quot;&gt;+ getScoreValues()&lt;/p&gt;&lt;p style=&quot;margin:0px;margin-left:4px;&quot;&gt;+ setScoreValues()&lt;/p&gt;&lt;p style=&quot;margin:0px;margin-left:4px;&quot;&gt;+ close()&lt;/p&gt;" style="verticalAlign=top;align=left;overflow=fill;fontSize=12;fontFamily=Helvetica;html=1;strokeColor=#000000;fontColor=#000000;fillColor=#b3c5d0;" vertex="1" parent="1">
                    <mxGeometry x="1081" y="-360" width="160" height="120" as="geometry"/>
                </mxCell>
                <mxCell id="50" style="edgeStyle=none;html=1;strokeColor=#000000;strokeWidth=2;fontFamily=TeX Gyre Termes;fontSize=15;fontColor=#000000;startArrow=openThin;startFill=0;endArrow=diamond;endFill=1;startSize=15;endSize=15;entryX=1;entryY=0.438;entryDx=0;entryDy=0;entryPerimeter=0;dashed=1;" edge="1" parent="1" source="49" target="39">
                    <mxGeometry relative="1" as="geometry">
                        <mxPoint x="770" y="50" as="targetPoint"/>
                    </mxGeometry>
                </mxCell>
                <mxCell id="95" style="edgeStyle=none;html=1;strokeColor=#000000;strokeWidth=2;fontFamily=Helvetica;fontSize=11;fontColor=#000000;startArrow=none;startFill=0;endArrow=none;endFill=0;startSize=15;endSize=10;entryX=0;entryY=0.5;entryDx=0;entryDy=0;" edge="1" parent="1" source="49" target="64">
                    <mxGeometry relative="1" as="geometry">
                        <Array as="points">
                            <mxPoint x="1040" y="30"/>
                            <mxPoint x="1040" y="-80"/>
                            <mxPoint x="80" y="-80"/>
                            <mxPoint x="80" y="-620"/>
                        </Array>
                    </mxGeometry>
                </mxCell>
                <mxCell id="49" value="&lt;p style=&quot;margin: 4px 0px 0px; text-align: center; font-size: 12px;&quot;&gt;&lt;b style=&quot;font-size: 12px;&quot;&gt;PauseScreen&lt;/b&gt;&lt;/p&gt;&lt;hr style=&quot;font-size: 12px;&quot;&gt;&lt;p style=&quot;margin: 0px 0px 0px 4px; font-size: 12px;&quot;&gt;- isPaused: bool&lt;/p&gt;&lt;p style=&quot;margin: 0px 0px 0px 4px; font-size: 12px;&quot;&gt;- menuSettings: List&amp;lt;string&amp;gt;&lt;/p&gt;&lt;hr style=&quot;font-size: 12px;&quot;&gt;&lt;p style=&quot;margin: 0px 0px 0px 4px; font-size: 12px;&quot;&gt;+ initializePauseScreen()&lt;/p&gt;&lt;p style=&quot;margin: 0px 0px 0px 4px; font-size: 12px;&quot;&gt;+ resumeGame()&lt;/p&gt;&lt;p style=&quot;margin: 0px 0px 0px 4px; font-size: 12px;&quot;&gt;+ exitGame()&lt;/p&gt;&lt;p style=&quot;margin: 0px 0px 0px 4px; font-size: 12px;&quot;&gt;+&amp;nbsp;endGame()&lt;/p&gt;" style="verticalAlign=top;align=left;overflow=fill;fontSize=12;fontFamily=Helvetica;html=1;strokeColor=#000000;fontColor=#000000;fillColor=#b3c5d0;" vertex="1" parent="1">
                    <mxGeometry x="840" y="-40" width="160" height="140" as="geometry"/>
                </mxCell>
                <mxCell id="51" value="&lt;font style=&quot;font-size: 15px;&quot;&gt;1&lt;/font&gt;" style="text;html=1;align=center;verticalAlign=middle;resizable=0;points=[];autosize=1;strokeColor=none;fillColor=none;fontColor=#000000;fontFamily=TeX Gyre Termes;fontStyle=1;strokeWidth=14;" vertex="1" parent="1">
                    <mxGeometry x="820" width="30" height="30" as="geometry"/>
                </mxCell>
                <mxCell id="52" value="&lt;font style=&quot;font-size: 15px;&quot;&gt;1&lt;/font&gt;" style="text;html=1;align=center;verticalAlign=middle;resizable=0;points=[];autosize=1;strokeColor=none;fillColor=none;fontColor=#000000;fontFamily=TeX Gyre Termes;fontStyle=1;strokeWidth=14;" vertex="1" parent="1">
                    <mxGeometry x="760" width="30" height="30" as="geometry"/>
                </mxCell>
                <mxCell id="57" value="&lt;font style=&quot;font-size: 15px;&quot;&gt;1&lt;/font&gt;" style="text;html=1;align=center;verticalAlign=middle;resizable=0;points=[];autosize=1;strokeColor=none;fillColor=none;fontColor=#000000;fontFamily=TeX Gyre Termes;fontStyle=1;strokeWidth=14;" vertex="1" parent="1">
                    <mxGeometry x="650" y="-110" width="30" height="30" as="geometry"/>
                </mxCell>
                <mxCell id="58" value="&lt;font style=&quot;font-size: 15px;&quot;&gt;1&lt;/font&gt;" style="text;html=1;align=center;verticalAlign=middle;resizable=0;points=[];autosize=1;strokeColor=none;fillColor=none;fontColor=#000000;fontFamily=TeX Gyre Termes;fontStyle=1;strokeWidth=14;" vertex="1" parent="1">
                    <mxGeometry x="650" y="120" width="30" height="30" as="geometry"/>
                </mxCell>
                <mxCell id="60" value="&lt;font style=&quot;font-size: 15px;&quot;&gt;1..*&lt;/font&gt;" style="text;html=1;align=center;verticalAlign=middle;resizable=0;points=[];autosize=1;strokeColor=none;fillColor=none;fontColor=#000000;fontFamily=TeX Gyre Termes;fontStyle=1;strokeWidth=14;" vertex="1" parent="1">
                    <mxGeometry x="510" y="-20" width="50" height="30" as="geometry"/>
                </mxCell>
                <mxCell id="61" value="&lt;font style=&quot;font-size: 15px;&quot;&gt;1&lt;/font&gt;" style="text;html=1;align=center;verticalAlign=middle;resizable=0;points=[];autosize=1;strokeColor=none;fillColor=none;fontColor=#000000;fontFamily=TeX Gyre Termes;fontStyle=1;strokeWidth=14;" vertex="1" parent="1">
                    <mxGeometry x="450" y="160" width="30" height="30" as="geometry"/>
                </mxCell>
                <mxCell id="64" value="Button" style="html=1;strokeColor=#000000;strokeWidth=2;fontFamily=TeX Gyre Termes;fontSize=15;fontColor=#000000;fillColor=#b3c5d0;" vertex="1" parent="1">
                    <mxGeometry x="160" y="-640" width="80" height="40" as="geometry"/>
                </mxCell>
                <mxCell id="65" value="Timer" style="html=1;strokeColor=#000000;strokeWidth=2;fontFamily=TeX Gyre Termes;fontSize=15;fontColor=#000000;fillColor=#b3c5d0;" vertex="1" parent="1">
                    <mxGeometry x="280" y="-640" width="80" height="40" as="geometry"/>
                </mxCell>
                <mxCell id="69" value="KinematicBody2D" style="html=1;strokeColor=#000000;strokeWidth=2;fontFamily=TeX Gyre Termes;fontSize=15;fontColor=#000000;fillColor=#b3c5d0;" vertex="1" parent="1">
                    <mxGeometry x="580" y="-630" width="120" height="40" as="geometry"/>
                </mxCell>
                <mxCell id="74" value="KinematicBody3D" style="html=1;strokeColor=#000000;strokeWidth=2;fontFamily=TeX Gyre Termes;fontSize=15;fontColor=#000000;fillColor=#b3c5d0;" vertex="1" parent="1">
                    <mxGeometry x="520" y="-520" width="120" height="40" as="geometry"/>
                </mxCell>
                <mxCell id="82" style="edgeStyle=none;html=1;exitX=0.25;exitY=0;exitDx=0;exitDy=0;entryX=0.75;entryY=1;entryDx=0;entryDy=0;dashed=1;strokeColor=#000000;strokeWidth=2;fontFamily=TeX Gyre Termes;fontSize=20;fontColor=#000000;startArrow=openThin;startFill=0;endArrow=openThin;endFill=0;startSize=15;endSize=15;" edge="1" parent="1" source="78" target="39">
                    <mxGeometry relative="1" as="geometry">
                        <Array as="points">
                            <mxPoint x="880" y="240"/>
                            <mxPoint x="800" y="240"/>
                            <mxPoint x="720" y="240"/>
                        </Array>
                    </mxGeometry>
                </mxCell>
                <mxCell id="98" style="edgeStyle=none;html=1;entryX=0.96;entryY=0.99;entryDx=0;entryDy=0;entryPerimeter=0;strokeColor=#000000;strokeWidth=2;fontFamily=TeX Gyre Termes;fontSize=12;fontColor=#000000;startArrow=none;startFill=0;endArrow=none;endFill=0;startSize=15;endSize=15;" edge="1" parent="1" source="78" target="97">
                    <mxGeometry relative="1" as="geometry">
                        <Array as="points">
                            <mxPoint x="1040" y="380"/>
                        </Array>
                    </mxGeometry>
                </mxCell>
                <mxCell id="108" style="edgeStyle=none;html=1;entryX=0;entryY=0.5;entryDx=0;entryDy=0;strokeColor=#000000;strokeWidth=2;fontFamily=TeX Gyre Termes;fontSize=12;fontColor=#000000;startArrow=none;startFill=0;endArrow=none;endFill=0;startSize=15;endSize=15;" edge="1" parent="1" source="78" target="105">
                    <mxGeometry relative="1" as="geometry">
                        <Array as="points">
                            <mxPoint x="820" y="380"/>
                            <mxPoint x="820" y="80"/>
                            <mxPoint x="800"/>
                            <mxPoint x="800" y="-40"/>
                            <mxPoint x="800" y="-530"/>
                        </Array>
                    </mxGeometry>
                </mxCell>
                <mxCell id="78" value="&lt;p style=&quot;margin:0px;margin-top:4px;text-align:center;&quot;&gt;&lt;b&gt;SelectionScreen&lt;/b&gt;&lt;/p&gt;&lt;hr size=&quot;1&quot;&gt;&lt;p style=&quot;margin:0px;margin-left:4px;&quot;&gt;- allShips: List&amp;lt;Spaceship&amp;gt;&lt;/p&gt;&lt;p style=&quot;margin:0px;margin-left:4px;&quot;&gt;- selectedShip: Ship&lt;/p&gt;&lt;p style=&quot;margin:0px;margin-left:4px;&quot;&gt;- selection: bool&lt;/p&gt;&lt;hr size=&quot;1&quot;&gt;&lt;p style=&quot;margin:0px;margin-left:4px;&quot;&gt;+ initializeSelectionScreen()&lt;/p&gt;&lt;p style=&quot;margin:0px;margin-left:4px;&quot;&gt;+ showShipDetails()&lt;/p&gt;&lt;p style=&quot;margin:0px;margin-left:4px;&quot;&gt;+ pauseGame()&lt;/p&gt;&lt;p style=&quot;margin:0px;margin-left:4px;&quot;&gt;+&amp;nbsp;confirmSelection()&lt;/p&gt;&lt;p style=&quot;margin:0px;margin-left:4px;&quot;&gt;+ transitionGameScreen()&lt;/p&gt;" style="verticalAlign=top;align=left;overflow=fill;fontSize=12;fontFamily=Helvetica;html=1;strokeColor=#000000;fontColor=#000000;fillColor=#b3c5d0;" vertex="1" parent="1">
                    <mxGeometry x="840" y="300" width="160" height="160" as="geometry"/>
                </mxCell>
                <mxCell id="81" style="edgeStyle=none;html=1;entryX=0.5;entryY=0;entryDx=0;entryDy=0;strokeColor=#000000;strokeWidth=2;fontFamily=TeX Gyre Termes;fontSize=20;fontColor=#000000;startArrow=openThin;startFill=0;endArrow=none;endFill=0;startSize=15;endSize=15;dashed=1;" edge="1" parent="1" source="79" target="78">
                    <mxGeometry relative="1" as="geometry">
                        <Array as="points">
                            <mxPoint x="1160" y="160"/>
                            <mxPoint x="920" y="160"/>
                        </Array>
                    </mxGeometry>
                </mxCell>
                <mxCell id="84" style="edgeStyle=none;html=1;exitX=0.75;exitY=1;exitDx=0;exitDy=0;entryX=0.75;entryY=0;entryDx=0;entryDy=0;dashed=1;strokeColor=#000000;strokeWidth=2;fontFamily=TeX Gyre Termes;fontSize=20;fontColor=#000000;startArrow=none;startFill=0;endArrow=classicThin;endFill=1;startSize=15;endSize=15;" edge="1" parent="1" source="79" target="80">
                    <mxGeometry relative="1" as="geometry"/>
                </mxCell>
                <mxCell id="97" style="edgeStyle=none;html=1;entryX=0;entryY=0.5;entryDx=0;entryDy=0;strokeColor=#000000;strokeWidth=2;fontFamily=Helvetica;fontSize=11;fontColor=#000000;startArrow=none;startFill=0;endArrow=none;endFill=0;startSize=15;endSize=10;" edge="1" parent="1" target="64">
                    <mxGeometry relative="1" as="geometry">
                        <mxPoint x="1080" y="30" as="sourcePoint"/>
                        <Array as="points">
                            <mxPoint x="1040" y="30"/>
                            <mxPoint x="1040" y="-80"/>
                            <mxPoint x="80" y="-80"/>
                            <mxPoint x="80" y="-620"/>
                        </Array>
                    </mxGeometry>
                </mxCell>
                <mxCell id="79" value="&lt;p style=&quot;margin:0px;margin-top:4px;text-align:center;&quot;&gt;&lt;b&gt;StartScreen&lt;/b&gt;&lt;/p&gt;&lt;hr size=&quot;1&quot;&gt;&lt;p style=&quot;margin:0px;margin-left:4px;&quot;&gt;- title: string&lt;/p&gt;&lt;p style=&quot;margin:0px;margin-left:4px;&quot;&gt;- menuOptions: List &amp;lt;String&amp;gt;&lt;/p&gt;&lt;hr size=&quot;1&quot;&gt;&lt;p style=&quot;margin:0px;margin-left:4px;&quot;&gt;+ initializeStartScreen()&lt;/p&gt;&lt;p style=&quot;margin:0px;margin-left:4px;&quot;&gt;+ displayStart()&lt;/p&gt;&lt;p style=&quot;margin:0px;margin-left:4px;&quot;&gt;+ startSelection()&lt;/p&gt;&lt;p style=&quot;margin:0px;margin-left:4px;&quot;&gt;+ transitionSelectScreen()&lt;br&gt;&lt;/p&gt;" style="verticalAlign=top;align=left;overflow=fill;fontSize=12;fontFamily=Helvetica;html=1;strokeColor=#000000;fontColor=#000000;fillColor=#b3c5d0;" vertex="1" parent="1">
                    <mxGeometry x="1081" y="-40" width="160" height="130" as="geometry"/>
                </mxCell>
                <mxCell id="83" style="edgeStyle=none;html=1;exitX=0.5;exitY=0;exitDx=0;exitDy=0;entryX=1;entryY=0.75;entryDx=0;entryDy=0;dashed=1;strokeColor=#000000;strokeWidth=2;fontFamily=TeX Gyre Termes;fontSize=20;fontColor=#000000;startArrow=none;startFill=0;endArrow=openThin;endFill=0;startSize=15;endSize=15;" edge="1" parent="1" source="80" target="39">
                    <mxGeometry relative="1" as="geometry">
                        <Array as="points">
                            <mxPoint x="1161" y="200"/>
                            <mxPoint x="800" y="200"/>
                            <mxPoint x="800" y="80"/>
                        </Array>
                    </mxGeometry>
                </mxCell>
                <mxCell id="99" style="edgeStyle=none;html=1;entryX=0.96;entryY=0.992;entryDx=0;entryDy=0;entryPerimeter=0;strokeColor=#000000;strokeWidth=2;fontFamily=TeX Gyre Termes;fontSize=12;fontColor=#000000;startArrow=none;startFill=0;endArrow=none;endFill=0;startSize=15;endSize=15;" edge="1" parent="1" source="80" target="97">
                    <mxGeometry relative="1" as="geometry">
                        <Array as="points">
                            <mxPoint x="1040" y="380"/>
                        </Array>
                    </mxGeometry>
                </mxCell>
                <mxCell id="80" value="&lt;p style=&quot;margin:0px;margin-top:4px;text-align:center;&quot;&gt;&lt;b&gt;EndScreen&lt;/b&gt;&lt;/p&gt;&lt;hr size=&quot;1&quot;&gt;&lt;p style=&quot;margin:0px;margin-left:4px;&quot;&gt;- finalScore: int&lt;/p&gt;&lt;p style=&quot;margin:0px;margin-left:4px;&quot;&gt;- summary: string&lt;/p&gt;&lt;hr size=&quot;1&quot;&gt;&lt;p style=&quot;margin:0px;margin-left:4px;&quot;&gt;+ initializeEndScreen()&lt;/p&gt;&lt;p style=&quot;margin:0px;margin-left:4px;&quot;&gt;+ restartGame()&lt;/p&gt;&lt;p style=&quot;margin:0px;margin-left:4px;&quot;&gt;+ endGame()&lt;/p&gt;&lt;p style=&quot;margin:0px;margin-left:4px;&quot;&gt;+ returnHome()&lt;/p&gt;&lt;p style=&quot;margin:0px;margin-left:4px;&quot;&gt;+ showSummary()&lt;/p&gt;&lt;p style=&quot;margin:0px;margin-left:4px;&quot;&gt;+ transitionStartScreen()&lt;br&gt;&lt;/p&gt;" style="verticalAlign=top;align=left;overflow=fill;fontSize=12;fontFamily=Helvetica;html=1;strokeColor=#000000;fontColor=#000000;fillColor=#b3c5d0;" vertex="1" parent="1">
                    <mxGeometry x="1081" y="300" width="160" height="160" as="geometry"/>
                </mxCell>
                <mxCell id="101" style="edgeStyle=none;html=1;entryX=0.5;entryY=1;entryDx=0;entryDy=0;strokeColor=#000000;fontColor=#000000;endArrow=block;endFill=0;strokeWidth=2;endSize=10;" edge="1" parent="1" target="76">
                    <mxGeometry relative="1" as="geometry">
                        <mxPoint x="80" y="-200" as="sourcePoint"/>
                        <mxPoint x="169.99999999999977" y="-400" as="targetPoint"/>
                        <Array as="points">
                            <mxPoint x="80" y="-270"/>
                            <mxPoint x="80" y="-370"/>
                            <mxPoint x="336" y="-370"/>
                        </Array>
                    </mxGeometry>
                </mxCell>
                <mxCell id="104" value="&lt;font style=&quot;font-size: 15px;&quot;&gt;has&lt;/font&gt;" style="text;html=1;align=center;verticalAlign=middle;resizable=0;points=[];autosize=1;strokeColor=none;fillColor=none;fontColor=#000000;fontFamily=TeX Gyre Termes;fontStyle=1;strokeWidth=14;" vertex="1" parent="1">
                    <mxGeometry x="100" y="-110" width="50" height="30" as="geometry"/>
                </mxCell>
                <mxCell id="107" style="edgeStyle=none;html=1;entryX=0;entryY=0.438;entryDx=0;entryDy=0;entryPerimeter=0;strokeColor=#000000;strokeWidth=2;fontFamily=TeX Gyre Termes;fontSize=12;fontColor=#000000;startArrow=none;startFill=0;endArrow=openThin;endFill=0;startSize=15;endSize=15;dashed=1;" edge="1" parent="1" source="105" target="106">
                    <mxGeometry relative="1" as="geometry"/>
                </mxCell>
                <mxCell id="105" value="&lt;p style=&quot;margin:0px;margin-top:4px;text-align:center;&quot;&gt;&lt;b&gt;Client&lt;/b&gt;&lt;/p&gt;&lt;hr size=&quot;1&quot;&gt;&lt;p style=&quot;margin:0px;margin-left:4px;&quot;&gt;&lt;span style=&quot;background-color: initial;&quot;&gt;- serverAddress: String&lt;/span&gt;&lt;/p&gt;&lt;p style=&quot;margin:0px;margin-left:4px;&quot;&gt;&lt;span style=&quot;background-color: initial;&quot;&gt;- port: int&lt;/span&gt;&lt;/p&gt;&lt;p style=&quot;margin:0px;margin-left:4px;&quot;&gt;- assignedColour: String&lt;/p&gt;&lt;hr size=&quot;1&quot;&gt;&lt;p style=&quot;margin:0px;margin-left:4px;&quot;&gt;+ requestColour()&lt;/p&gt;&lt;p style=&quot;margin:0px;margin-left:4px;&quot;&gt;+ connectToServer()&lt;/p&gt;&lt;p style=&quot;margin:0px;margin-left:4px;&quot;&gt;+ disconnectServer()&lt;/p&gt;" style="verticalAlign=top;align=left;overflow=fill;fontSize=12;fontFamily=Helvetica;html=1;strokeColor=#000000;fontColor=#000000;fillColor=#b3c5d0;" vertex="1" parent="1">
                    <mxGeometry x="841" y="-600" width="160" height="140" as="geometry"/>
                </mxCell>
                <mxCell id="106" value="&lt;p style=&quot;margin:0px;margin-top:4px;text-align:center;&quot;&gt;&lt;b&gt;Server&lt;/b&gt;&lt;/p&gt;&lt;hr size=&quot;1&quot;&gt;&lt;p style=&quot;margin:0px;margin-left:4px;&quot;&gt;&lt;span style=&quot;background-color: initial;&quot;&gt;- colours: List&amp;lt;String&amp;gt;&lt;br&gt;&lt;/span&gt;&lt;/p&gt;&lt;p style=&quot;margin:0px;margin-left:4px;&quot;&gt;&lt;span style=&quot;background-color: initial;&quot;&gt;- isRunning: bool&lt;/span&gt;&lt;/p&gt;&lt;p style=&quot;margin:0px;margin-left:4px;&quot;&gt;- port: int&lt;/p&gt;&lt;hr size=&quot;1&quot;&gt;&lt;p style=&quot;margin:0px;margin-left:4px;&quot;&gt;&lt;span style=&quot;background-color: initial;&quot;&gt;+ startServer()&lt;/span&gt;&lt;/p&gt;&lt;p style=&quot;margin:0px;margin-left:4px;&quot;&gt;&lt;span style=&quot;background-color: initial;&quot;&gt;+ stopServer()&lt;/span&gt;&lt;/p&gt;&lt;p style=&quot;margin:0px;margin-left:4px;&quot;&gt;+ randomColour()&lt;/p&gt;" style="verticalAlign=top;align=left;overflow=fill;fontSize=12;fontFamily=Helvetica;html=1;strokeColor=#000000;fontColor=#000000;fillColor=#b3c5d0;" vertex="1" parent="1">
                    <mxGeometry x="1081" y="-600" width="160" height="160" as="geometry"/>
                </mxCell>
                <mxCell id="110" style="edgeStyle=none;html=1;entryX=0;entryY=0.246;entryDx=0;entryDy=0;entryPerimeter=0;strokeColor=#000000;strokeWidth=2;fontFamily=TeX Gyre Termes;fontSize=12;fontColor=#000000;startArrow=none;startFill=0;endArrow=none;endFill=0;startSize=15;endSize=15;" edge="1" parent="1" source="75" target="102">
                    <mxGeometry relative="1" as="geometry">
                        <Array as="points">
                            <mxPoint x="60" y="-540"/>
                        </Array>
                    </mxGeometry>
                </mxCell>
            </root>
        </mxGraphModel>
    </diagram>
</mxfile>